<?xml version="1.0" encoding="utf-8"?>
<!-- Generator: Adobe Illustrator 15.0.0, SVG Export Plug-In . SVG Version: 6.00 Build 0)  -->
<!DOCTYPE svg PUBLIC "-//W3C//DTD SVG 1.1//EN" "http://www.w3.org/Graphics/SVG/1.1/DTD/svg11.dtd">
<svg version="1.1" id="Calque_1" xmlns="http://www.w3.org/2000/svg" xmlns:xlink="http://www.w3.org/1999/xlink" x="0px" y="0px"
	 width="2778.26px" height="252.68px" viewBox="0 0 2778.26 252.68" enable-background="new 0 0 2778.26 252.68"
	 xml:space="preserve">
<g>
	<path fill-rule="evenodd" clip-rule="evenodd" fill="#EF383C" d="M38.841,16.033h2700.187c21.427,0,38.688,12.282,38.688,27.557
		v165.176c0,15.247-17.261,27.529-38.688,27.529H38.841c-21.427,0-38.688-12.282-38.688-27.529V43.59
		C0.153,28.315,17.414,16.033,38.841,16.033L38.841,16.033z"/>
	<path fill="#FFFFFF" stroke="#000000" stroke-width="6.607" stroke-miterlimit="282" d="M190.388,165.029h-47.757l-7.54,21.487
		h-30.723l43.903-117.995h36.42l43.874,117.995h-30.723L190.388,165.029z M150.255,143.119h32.452l-16.184-46.955L150.255,143.119z"
		/>
	<path fill="#FFFFFF" stroke="#000000" stroke-width="6.607" stroke-miterlimit="282" d="M241.972,152.069v-54.07h28.569v8.838
		c0,4.8-0.028,10.814-0.085,18.07c-0.057,7.257-0.085,12.085-0.085,14.513c0,7.115,0.198,12.227,0.567,15.36
		c0.368,3.134,0.992,5.421,1.899,6.861c1.162,1.835,2.692,3.247,4.563,4.264c1.871,0.988,4.025,1.496,6.462,1.496
		c5.923,0,10.6-2.259,13.973-6.805c3.401-4.518,5.073-10.814,5.073-18.89V97.999h28.428v88.518h-28.428v-12.791
		c-4.28,5.167-8.814,8.979-13.604,11.407c-4.79,2.457-10.062,3.699-15.815,3.699c-10.288,0-18.083-3.135-23.468-9.431
		C244.664,173.133,241.972,164.013,241.972,152.069L241.972,152.069z"/>
	<path fill="#FFFFFF" stroke="#000000" stroke-width="6.607" stroke-miterlimit="282" d="M389.806,72.87v25.129h29.278v20.245
		h-29.278v37.525c0,4.122,0.822,6.89,2.466,8.357c1.644,1.44,4.875,2.174,9.75,2.174h14.596v20.217h-24.346
		c-11.224,0-19.16-2.315-23.864-6.975c-4.677-4.687-7-12.593-7-23.773v-37.525h-14.143V97.999h14.143V72.87H389.806z"/>
	<path fill="#FFFFFF" stroke="#000000" stroke-width="6.607" stroke-miterlimit="282" d="M478.83,116.098
		c-6.292,0-11.082,2.259-14.398,6.748c-3.316,4.518-4.96,11.012-4.96,19.482c0,8.499,1.644,14.993,4.96,19.511
		c3.316,4.489,8.105,6.748,14.398,6.748c6.207,0,10.94-2.259,14.199-6.748c3.288-4.518,4.932-11.012,4.932-19.511
		c0-8.47-1.644-14.964-4.932-19.482C489.77,118.357,485.036,116.098,478.83,116.098L478.83,116.098z M478.83,95.854
		c15.305,0,27.237,4.122,35.825,12.339c8.588,8.216,12.896,19.595,12.896,34.136c0,14.569-4.308,25.948-12.896,34.165
		c-8.588,8.216-20.52,12.339-35.825,12.339c-15.333,0-27.322-4.123-35.995-12.339c-8.645-8.217-12.953-19.596-12.953-34.165
		c0-14.541,4.308-25.919,12.953-34.136C451.507,99.976,463.496,95.854,478.83,95.854L478.83,95.854z"/>
	<path fill="#FFFFFF" stroke="#000000" stroke-width="6.607" stroke-miterlimit="282" d="M630.632,112.71
		c3.599-5.506,7.879-9.657,12.811-12.537c4.96-2.88,10.374-4.32,16.297-4.32c10.231,0,17.998,3.134,23.326,9.402
		c5.356,6.268,8.021,15.388,8.021,27.359v53.901h-28.569v-46.165c0.057-0.677,0.113-1.383,0.142-2.117s0.028-1.807,0.028-3.162
		c0-6.269-0.936-10.814-2.778-13.638c-1.842-2.824-4.846-4.235-8.956-4.235c-5.414,0-9.58,2.23-12.499,6.635
		c-2.948,4.433-4.478,10.842-4.563,19.228v43.454h-28.569v-46.165c0-9.797-0.85-16.094-2.551-18.917
		c-1.701-2.824-4.705-4.235-9.042-4.235c-5.441,0-9.665,2.23-12.612,6.692c-2.976,4.433-4.45,10.814-4.45,19.086v43.539h-28.569
		V97.999h28.569v12.96c3.486-4.998,7.511-8.781,12.017-11.294c4.535-2.541,9.523-3.812,14.965-3.812
		c6.15,0,11.564,1.468,16.269,4.433C624.623,103.251,628.194,107.374,630.632,112.71L630.632,112.71z"/>
	<path fill="#FFFFFF" stroke="#000000" stroke-width="6.607" stroke-miterlimit="282" d="M757.578,146.677
		c-5.924,0-10.374,1.017-13.35,3.021c-3.004,2.004-4.506,4.94-4.506,8.837c0,3.586,1.219,6.41,3.628,8.442
		c2.409,2.005,5.753,3.021,10.033,3.021c5.357,0,9.835-1.892,13.491-5.731c3.656-3.813,5.47-8.584,5.47-14.344v-3.247H757.578z
		 M800.998,136.004v50.513h-28.654v-13.102c-3.798,5.365-8.078,9.29-12.839,11.718c-4.762,2.457-10.572,3.699-17.402,3.699
		c-9.183,0-16.666-2.683-22.391-8.047c-5.753-5.337-8.616-12.282-8.616-20.81c0-10.391,3.571-18.015,10.742-22.843
		c7.17-4.856,18.422-7.284,33.756-7.284h16.75v-2.202c0-4.49-1.757-7.765-5.3-9.854c-3.571-2.089-9.098-3.106-16.609-3.106
		c-6.065,0-11.734,0.593-16.977,1.807c-5.215,1.214-10.09,3.021-14.596,5.45v-21.572c6.093-1.468,12.187-2.598,18.337-3.36
		c6.122-0.763,12.272-1.158,18.395-1.158c16.042,0,27.605,3.162,34.719,9.458S800.998,121.83,800.998,136.004L800.998,136.004z"/>
	<path fill="#FFFFFF" stroke="#000000" stroke-width="6.607" stroke-miterlimit="282" d="M858.59,72.87v25.129h29.278v20.245H858.59
		v37.525c0,4.122,0.822,6.89,2.466,8.357c1.644,1.44,4.903,2.174,9.778,2.174h14.596v20.217h-24.375
		c-11.224,0-19.159-2.315-23.836-6.975c-4.676-4.687-7.029-12.593-7.029-23.773v-37.525h-14.115V97.999h14.115V72.87H858.59z"/>
	<path fill="#FFFFFF" stroke="#000000" stroke-width="6.607" stroke-miterlimit="282" d="M905.327,97.999h28.428v88.518h-28.428
		V97.999z M905.327,63.524h28.428v23.097h-28.428V63.524z"/>
	<path fill="#FFFFFF" stroke="#000000" stroke-width="6.607" stroke-miterlimit="282" d="M1003.505,116.098
		c-6.32,0-11.11,2.259-14.426,6.748c-3.288,4.518-4.96,11.012-4.96,19.482c0,8.499,1.672,14.993,4.96,19.511
		c3.316,4.489,8.106,6.748,14.426,6.748c6.179,0,10.912-2.259,14.2-6.748c3.259-4.518,4.903-11.012,4.903-19.511
		c0-8.47-1.644-14.964-4.903-19.482C1014.417,118.357,1009.684,116.098,1003.505,116.098L1003.505,116.098z M1003.505,95.854
		c15.277,0,27.209,4.122,35.825,12.339c8.588,8.216,12.896,19.595,12.896,34.136c0,14.569-4.308,25.948-12.896,34.165
		c-8.616,8.216-20.548,12.339-35.825,12.339c-15.361,0-27.351-4.123-35.995-12.339c-8.645-8.217-12.981-19.596-12.981-34.165
		c0-14.541,4.336-25.919,12.981-34.136C976.154,99.976,988.144,95.854,1003.505,95.854L1003.505,95.854z"/>
	<path fill="#FFFFFF" stroke="#000000" stroke-width="6.607" stroke-miterlimit="282" d="M1162.279,132.615v53.901h-28.569v-8.753
		v-32.499c0-7.651-0.17-12.903-0.51-15.812c-0.34-2.908-0.936-5.026-1.786-6.409c-1.134-1.835-2.636-3.275-4.535-4.292
		c-1.899-1.044-4.082-1.553-6.519-1.553c-5.923,0-10.572,2.287-13.944,6.833c-3.401,4.574-5.073,10.87-5.073,18.945v43.539h-28.427
		V97.999h28.427v12.96c4.28-5.167,8.814-8.979,13.633-11.435c4.818-2.428,10.146-3.67,15.957-3.67
		c10.26,0,18.054,3.134,23.354,9.402C1159.615,111.524,1162.279,120.644,1162.279,132.615L1162.279,132.615z"/>
	<path fill="#FFFFFF" stroke="#000000" stroke-width="6.607" stroke-miterlimit="282" d="M1675.533,166.865h-50.024l-7.907,22.531
		h-32.169l45.972-123.642h38.148l45.972,123.642h-32.169L1675.533,166.865z M1633.473,143.938h34.012l-16.949-49.185
		L1633.473,143.938z"/>
	<path fill="#FFFFFF" stroke="#000000" stroke-width="6.607" stroke-miterlimit="282" d="M1729.582,153.284v-56.64h29.93v9.29
		c0,5.025-0.028,11.322-0.085,18.917s-0.085,12.649-0.085,15.19c0,7.454,0.198,12.819,0.566,16.123
		c0.397,3.275,1.077,5.675,2.013,7.144c1.219,1.948,2.806,3.444,4.762,4.489c1.983,1.045,4.251,1.553,6.773,1.553
		c6.207,0,11.11-2.372,14.653-7.115s5.3-11.351,5.3-19.793V96.644h29.76v92.752h-29.76v-13.412
		c-4.478,5.422-9.239,9.402-14.256,11.972c-5.017,2.57-10.544,3.841-16.58,3.841c-10.742,0-18.934-3.275-24.545-9.854
		C1732.388,175.392,1729.582,165.82,1729.582,153.284L1729.582,153.284z"/>
	<path fill="#FFFFFF" stroke="#000000" stroke-width="6.607" stroke-miterlimit="282" d="M1884.445,70.329v26.315h30.667v21.205
		h-30.667v39.332c0,4.319,0.851,7.228,2.579,8.752c1.729,1.525,5.13,2.26,10.231,2.26h15.277v21.204h-25.509
		c-11.762,0-20.066-2.428-24.97-7.313s-7.369-13.187-7.369-24.903v-39.332h-14.795V96.644h14.795V70.329H1884.445z"/>
	<path fill="#FFFFFF" stroke="#000000" stroke-width="6.607" stroke-miterlimit="282" d="M1977.721,115.618
		c-6.604,0-11.621,2.372-15.078,7.087c-3.486,4.715-5.215,11.52-5.215,20.414c0,8.894,1.729,15.671,5.215,20.414
		c3.457,4.715,8.475,7.059,15.078,7.059c6.49,0,11.45-2.344,14.88-7.059c3.429-4.743,5.158-11.521,5.158-20.414
		c0-8.895-1.729-15.699-5.158-20.414C1989.171,117.99,1984.211,115.618,1977.721,115.618L1977.721,115.618z M1977.721,94.414
		c16.014,0,28.512,4.32,37.525,12.932c9.013,8.612,13.52,20.527,13.52,35.774c0,15.219-4.507,27.162-13.52,35.773
		c-9.014,8.612-21.512,12.904-37.525,12.904c-16.07,0-28.654-4.292-37.695-12.904c-9.07-8.611-13.604-20.555-13.604-35.773
		c0-15.247,4.534-27.162,13.604-35.774C1949.066,98.733,1961.65,94.414,1977.721,94.414L1977.721,94.414z"/>
	<path fill="#FFFFFF" stroke="#000000" stroke-width="6.607" stroke-miterlimit="282" d="M2136.75,112.061
		c3.77-5.76,8.248-10.108,13.406-13.129c5.187-3.021,10.883-4.518,17.09-4.518c10.686,0,18.848,3.275,24.432,9.854
		c5.611,6.579,8.418,16.122,8.418,28.658v56.471h-29.93v-48.367c0.057-0.705,0.085-1.439,0.113-2.23
		c0.028-0.762,0.057-1.863,0.057-3.304c0-6.578-0.992-11.322-2.92-14.287c-1.955-2.965-5.072-4.433-9.409-4.433
		c-5.64,0-10.005,2.315-13.065,6.946c-3.09,4.658-4.677,11.351-4.79,20.132v45.543h-29.93v-48.367
		c0-10.249-0.879-16.856-2.664-19.821c-1.758-2.965-4.932-4.433-9.467-4.433c-5.726,0-10.118,2.343-13.235,7.002
		c-3.09,4.659-4.648,11.323-4.648,19.991v45.628h-29.93V96.644h29.93v13.581c3.656-5.224,7.851-9.176,12.612-11.831
		c4.733-2.654,9.948-3.981,15.645-3.981c6.435,0,12.131,1.553,17.063,4.63C2130.458,102.15,2134.199,106.47,2136.75,112.061
		L2136.75,112.061z"/>
	<path fill="#FFFFFF" stroke="#000000" stroke-width="6.607" stroke-miterlimit="282" d="M2269.732,147.665
		c-6.207,0-10.854,1.045-14.001,3.134c-3.117,2.118-4.677,5.195-4.677,9.29c0,3.755,1.248,6.691,3.77,8.809
		c2.523,2.146,6.037,3.19,10.516,3.19c5.583,0,10.316-2.004,14.143-5.985c3.826-4.01,5.726-9.035,5.726-15.05v-3.388H2269.732z
		 M2315.223,136.483v52.913h-30.015v-13.751c-3.997,5.647-8.475,9.741-13.463,12.311c-4.988,2.57-11.054,3.841-18.196,3.841
		c-9.664,0-17.486-2.796-23.495-8.386c-6.009-5.619-9.013-12.876-9.013-21.826c0-10.871,3.74-18.861,11.252-23.943
		c7.51-5.082,19.301-7.624,35.371-7.624h17.544v-2.314c0-4.688-1.871-8.132-5.584-10.306c-3.713-2.174-9.494-3.275-17.374-3.275
		c-6.349,0-12.301,0.649-17.771,1.92c-5.498,1.271-10.6,3.163-15.305,5.704V99.129c6.377-1.525,12.782-2.711,19.216-3.501
		c6.406-0.819,12.84-1.214,19.273-1.214c16.807,0,28.909,3.303,36.363,9.91C2311.481,110.903,2315.223,121.632,2315.223,136.483
		L2315.223,136.483z"/>
	<path fill="#FFFFFF" stroke="#000000" stroke-width="6.607" stroke-miterlimit="282" d="M2375.563,70.329v26.315h30.667v21.205
		h-30.667v39.332c0,4.319,0.851,7.228,2.579,8.752c1.729,1.525,5.13,2.26,10.231,2.26h15.276v21.204h-25.508
		c-11.733,0-20.066-2.428-24.97-7.313s-7.369-13.187-7.369-24.903v-39.332h-14.794V96.644h14.794V70.329H2375.563z"/>
	<path fill="#FFFFFF" stroke="#000000" stroke-width="6.607" stroke-miterlimit="282" d="M2424.539,96.644h29.76v92.752h-29.76
		V96.644z M2424.539,60.56h29.76v24.169h-29.76V60.56z"/>
	<path fill="#FFFFFF" stroke="#000000" stroke-width="6.607" stroke-miterlimit="282" d="M2527.365,115.618
		c-6.604,0-11.62,2.372-15.105,7.087c-3.458,4.715-5.188,11.52-5.188,20.414c0,8.894,1.729,15.671,5.188,20.414
		c3.485,4.715,8.502,7.059,15.105,7.059c6.491,0,11.451-2.344,14.881-7.059c3.429-4.743,5.158-11.521,5.158-20.414
		c0-8.895-1.729-15.699-5.158-20.414C2538.816,117.99,2533.856,115.618,2527.365,115.618L2527.365,115.618z M2527.365,94.414
		c16.014,0,28.514,4.32,37.525,12.932c9.014,8.612,13.52,20.527,13.52,35.774c0,15.219-4.506,27.162-13.52,35.773
		c-9.012,8.612-21.512,12.904-37.525,12.904c-16.069,0-28.653-4.292-37.695-12.904c-9.069-8.611-13.604-20.555-13.604-35.773
		c0-15.247,4.534-27.162,13.604-35.774C2498.712,98.733,2511.296,94.414,2527.365,94.414L2527.365,94.414z"/>
	<path fill="#FFFFFF" stroke="#000000" stroke-width="6.607" stroke-miterlimit="282" d="M2693.708,132.926v56.471h-29.93v-9.177
		v-34.051c0-7.991-0.198-13.525-0.539-16.546c-0.368-3.05-0.991-5.28-1.87-6.72c-1.162-1.92-2.75-3.445-4.733-4.518
		c-2.013-1.073-4.28-1.609-6.831-1.609c-6.207,0-11.081,2.4-14.624,7.171s-5.329,11.379-5.329,19.821v45.628h-29.759V96.644h29.759
		v13.581c4.507-5.393,9.269-9.402,14.313-11.972c5.045-2.541,10.601-3.84,16.694-3.84c10.741,0,18.904,3.275,24.487,9.854
		C2690.902,110.846,2693.708,120.39,2693.708,132.926L2693.708,132.926z"/>
	
		<rect x="1270.774" y="1.576" fill="#FFFFFF" stroke="#9C9C9C" stroke-width="2.4282" stroke-miterlimit="282" width="236.319" height="249.203"/>
	<rect x="1388.934" y="0.334" fill="#E3001B" width="119.35" height="251.688"/>
	<polygon fill="#E3001B" points="1284.407,91.195 1284.407,41.727 1321.763,41.727 1321.763,50.084 1294.554,50.084 
		1294.554,61.068 1319.863,61.068 1319.863,69.397 1294.554,69.397 1294.554,82.865 1322.726,82.865 1322.726,91.195 	"/>
	<polygon fill="#E3001B" points="1331.257,91.195 1331.257,41.727 1346.505,41.727 1355.632,75.468 1364.673,41.727 
		1379.921,41.727 1379.921,91.195 1370.483,91.195 1370.483,52.258 1360.479,91.195 1350.7,91.195 1340.724,52.258 1340.724,91.195 
			"/>
	<polygon fill="#FFFFFF" points="1418.438,90.319 1400.072,40.936 1411.324,40.936 1424.334,77.472 1436.918,40.936 
		1447.915,40.936 1429.521,90.319 	"/>
	<path fill="#FFFFFF" d="M1449.729,80.098l9.892-1.44c0.425,1.835,1.275,3.247,2.551,4.207c1.304,0.932,3.09,1.412,5.413,1.412
		c2.552,0,4.45-0.452,5.754-1.327c0.851-0.649,1.275-1.496,1.275-2.541c0-0.706-0.227-1.299-0.68-1.779
		c-0.511-0.452-1.588-0.875-3.316-1.242c-7.936-1.694-12.98-3.219-15.106-4.631c-2.919-1.92-4.394-4.602-4.394-8.047
		c0-3.106,1.275-5.704,3.798-7.821c2.551-2.089,6.52-3.162,11.848-3.162c5.102,0,8.899,0.791,11.365,2.4
		c2.466,1.581,4.194,3.953,5.102,7.059l-9.268,1.666c-0.397-1.383-1.162-2.457-2.268-3.19c-1.105-0.762-2.692-1.129-4.733-1.129
		c-2.607,0-4.449,0.339-5.584,1.044c-0.736,0.508-1.133,1.129-1.133,1.92c0,0.677,0.34,1.242,0.992,1.722
		c0.878,0.621,3.968,1.525,9.211,2.654c5.243,1.157,8.899,2.541,10.969,4.207c2.068,1.694,3.089,4.038,3.089,7.059
		c0,3.275-1.417,6.099-4.279,8.442c-2.835,2.372-7.058,3.529-12.642,3.529c-5.072,0-9.098-0.988-12.045-2.965
		C1452.592,86.169,1450.664,83.486,1449.729,80.098L1449.729,80.098z"/>
	<polygon fill="#E3001B" stroke="#C01400" stroke-width="0.2259" stroke-linejoin="round" stroke-miterlimit="282" points="
		1389.076,113.444 1376.945,152.55 1337.946,152.069 1369.746,176.211 1357.275,214.893 1389.047,190.695 1389.076,113.444 	"/>
	<polygon fill="#FFFFFF" points="1388.962,113.303 1401.064,152.578 1440.064,152.126 1408.264,176.352 1420.734,215.175 
		1388.991,190.893 1388.962,113.303 	"/>
	<polygon fill="#FFFFFF" points="1458.77,190.385 1450.806,184.907 1443.097,190.78 1445.874,181.547 1437.91,176.069 
		1447.574,175.844 1450.353,166.61 1453.555,175.702 1463.22,175.448 1455.539,181.293 	"/>
</g>
</svg>
