<?xml version="1.0" encoding="utf-8"?>
<!-- Generator: Adobe Illustrator 15.0.0, SVG Export Plug-In . SVG Version: 6.00 Build 0)  -->
<!DOCTYPE svg PUBLIC "-//W3C//DTD SVG 1.1//EN" "http://www.w3.org/Graphics/SVG/1.1/DTD/svg11.dtd">
<svg version="1.1" id="Calque_1" xmlns="http://www.w3.org/2000/svg" xmlns:xlink="http://www.w3.org/1999/xlink" x="0px" y="0px"
	 width="2778.26px" height="252.68px" viewBox="0 0 2778.26 252.68" enable-background="new 0 0 2778.26 252.68"
	 xml:space="preserve">
<g>
	<path fill-rule="evenodd" clip-rule="evenodd" fill="#4DEF38" d="M38.841,16.033h2700.187c21.427,0,38.688,12.282,38.688,27.557
		v165.176c0,15.247-17.261,27.529-38.688,27.529H38.841c-21.427,0-38.688-12.282-38.688-27.529V43.59
		C0.153,28.315,17.414,16.033,38.841,16.033L38.841,16.033z"/>
	<polygon fill="#FFFFFF" stroke="#000000" stroke-width="6.607" stroke-miterlimit="282" points="68.657,60.531 151.105,60.531 
		151.105,83.543 99.21,83.543 99.21,105.51 148.016,105.51 148.016,128.521 99.21,128.521 99.21,155.543 152.863,155.543 
		152.863,178.555 68.657,178.555 	"/>
	
		<rect x="178.484" y="55.534" fill="#FFFFFF" stroke="#000000" stroke-width="6.607" stroke-miterlimit="282" width="28.399" height="123.021"/>
	<path fill="#FFFFFF" stroke="#000000" stroke-width="6.607" stroke-miterlimit="282" d="M323.059,134.056v8.047h-66.406
		c0.68,6.636,3.089,11.633,7.199,14.937c4.138,3.332,9.891,4.998,17.317,4.998c5.98,0,12.103-0.904,18.366-2.654
		c6.264-1.779,12.697-4.434,19.33-8.02v21.798c-6.746,2.541-13.463,4.461-20.18,5.731c-6.717,1.299-13.434,1.948-20.151,1.948
		c-16.07,0-28.569-4.065-37.497-12.226c-8.899-8.132-13.349-19.566-13.349-34.249c0-14.457,4.365-25.807,13.123-34.08
		s20.803-12.395,36.137-12.395c13.973,0,25.14,4.179,33.529,12.564C318.865,108.813,323.059,120.022,323.059,134.056
		L323.059,134.056z M293.867,124.625c0-5.365-1.587-9.713-4.733-12.988c-3.146-3.303-7.256-4.941-12.329-4.941
		c-5.499,0-9.977,1.524-13.406,4.63c-3.458,3.078-5.583,7.511-6.434,13.299H293.867z"/>
	<path fill="#FFFFFF" stroke="#000000" stroke-width="6.607" stroke-miterlimit="282" d="M416.306,92.776v23.096
		c-3.883-2.654-7.737-4.602-11.648-5.873c-3.883-1.242-7.908-1.892-12.103-1.892c-7.936,0-14.086,2.315-18.507,6.917
		c-4.421,4.631-6.632,11.068-6.632,19.341c0,8.272,2.211,14.711,6.632,19.313c4.421,4.631,10.572,6.918,18.507,6.918
		c4.45,0,8.673-0.649,12.669-1.977c3.996-1.299,7.681-3.247,11.082-5.845v23.153c-4.45,1.638-8.956,2.88-13.547,3.698
		c-4.563,0.791-9.155,1.214-13.774,1.214c-16.014,0-28.541-4.094-37.61-12.282c-9.042-8.216-13.548-19.595-13.548-34.192
		s4.506-26.005,13.548-34.193c9.069-8.188,21.597-12.282,37.61-12.282c4.676,0,9.268,0.395,13.774,1.214
		C407.293,89.924,411.799,91.138,416.306,92.776L416.306,92.776z"/>
	<path fill="#FFFFFF" stroke="#000000" stroke-width="6.607" stroke-miterlimit="282" d="M471.999,64.879v25.129h29.277v20.245
		h-29.277v37.552c0,4.095,0.822,6.89,2.466,8.33c1.644,1.439,4.875,2.174,9.75,2.174h14.597v20.245h-24.346
		c-11.224,0-19.16-2.344-23.865-7.003c-4.676-4.658-7-12.593-7-23.746v-37.552h-14.143V90.009H443.6V64.879H471.999z"/>
	<path fill="#FFFFFF" stroke="#000000" stroke-width="6.607" stroke-miterlimit="282" d="M584.745,114.122
		c-2.494-1.158-4.96-2.005-7.426-2.569c-2.438-0.565-4.932-0.819-7.397-0.819c-7.312,0-12.924,2.315-16.864,6.974
		c-3.939,4.687-5.923,11.35-5.923,20.046v40.801h-28.399V90.009h28.399v14.541c3.656-5.788,7.851-10.023,12.584-12.678
		c4.733-2.654,10.402-3.981,17.005-3.981c0.964,0,1.984,0.028,3.118,0.113c1.105,0.085,2.721,0.254,4.818,0.508L584.745,114.122z"/>
	<path fill="#FFFFFF" stroke="#000000" stroke-width="6.607" stroke-miterlimit="282" d="M641.317,108.107
		c-6.292,0-11.082,2.259-14.398,6.776c-3.288,4.489-4.96,10.983-4.96,19.482c0,8.471,1.672,14.965,4.96,19.482
		c3.316,4.489,8.106,6.748,14.398,6.748c6.207,0,10.94-2.259,14.228-6.748c3.26-4.518,4.903-11.012,4.903-19.482
		c0-8.499-1.644-14.993-4.903-19.482C652.257,110.366,647.524,108.107,641.317,108.107L641.317,108.107z M641.317,87.891
		c15.305,0,27.237,4.094,35.825,12.311c8.616,8.216,12.896,19.624,12.896,34.165s-4.28,25.92-12.896,34.137
		c-8.588,8.216-20.52,12.338-35.825,12.338c-15.333,0-27.322-4.122-35.967-12.338c-8.645-8.217-12.981-19.596-12.981-34.137
		s4.336-25.948,12.981-34.165S625.983,87.891,641.317,87.891L641.317,87.891z"/>
	<path fill="#FFFFFF" stroke="#000000" stroke-width="6.607" stroke-miterlimit="282" d="M800.12,124.625v53.93H771.55v-8.781
		v-32.499c0-7.623-0.17-12.903-0.539-15.812c-0.34-2.88-0.935-5.026-1.786-6.381c-1.105-1.864-2.607-3.304-4.506-4.32
		c-1.899-1.017-4.081-1.553-6.519-1.553c-5.924,0-10.572,2.287-13.945,6.861c-3.401,4.546-5.102,10.871-5.102,18.917v43.567h-28.399
		V90.009h28.399v12.96c4.308-5.167,8.843-8.979,13.661-11.407c4.818-2.457,10.118-3.67,15.957-3.67
		c10.26,0,18.054,3.134,23.354,9.402C797.455,103.562,800.12,112.682,800.12,124.625L800.12,124.625z"/>
	<path fill="#FFFFFF" stroke="#000000" stroke-width="6.607" stroke-miterlimit="282" d="M826.62,90.009h28.399v88.546H826.62
		V90.009z M826.62,55.534h28.399V78.63H826.62V55.534z"/>
	<path fill="#FFFFFF" stroke="#000000" stroke-width="6.607" stroke-miterlimit="282" d="M924.203,108.418
		c-6.037,0-10.628,2.23-13.831,6.664c-3.203,4.405-4.818,10.842-4.818,19.285c0,8.414,1.615,14.852,4.818,19.284
		c3.203,4.434,7.794,6.636,13.831,6.636c6.094,0,10.742-2.202,13.945-6.636c3.174-4.433,4.79-10.87,4.79-19.284
		c0-8.442-1.615-14.88-4.79-19.285C934.945,110.648,930.296,108.418,924.203,108.418L924.203,108.418z M942.937,165.735
		c-3.911,5.224-8.219,9.035-12.924,11.464c-4.733,2.428-10.175,3.642-16.354,3.642c-10.94,0-19.953-4.348-26.982-13.016
		c-7.029-8.669-10.543-19.821-10.543-33.459c0-13.666,3.515-24.791,10.543-33.402c7.029-8.612,16.042-12.932,26.982-12.932
		c6.179,0,11.621,1.214,16.354,3.643c4.705,2.428,9.013,6.24,12.924,11.463V90.009h28.569v122.202h-28.569V165.735z"/>
	<path fill="#FFFFFF" stroke="#000000" stroke-width="6.607" stroke-miterlimit="282" d="M998.007,144.079v-54.07h28.569v8.866
		c0,4.8-0.028,10.814-0.085,18.042c-0.057,7.256-0.085,12.085-0.085,14.513c0,7.115,0.198,12.254,0.567,15.389
		c0.368,3.134,0.992,5.393,1.899,6.832c1.162,1.836,2.692,3.275,4.563,4.264s4.025,1.497,6.462,1.497
		c5.924,0,10.572-2.259,13.973-6.805c3.373-4.518,5.073-10.814,5.073-18.89V90.009h28.399v88.546h-28.399v-12.819
		c-4.28,5.167-8.814,8.979-13.604,11.436c-4.79,2.456-10.062,3.67-15.843,3.67c-10.26,0-18.054-3.134-23.439-9.402
		C1000.699,165.171,998.007,156.051,998.007,144.079L998.007,144.079z"/>
	<path fill="#FFFFFF" stroke="#000000" stroke-width="6.607" stroke-miterlimit="282" d="M1203.518,134.056v8.047h-66.406
		c0.68,6.636,3.089,11.633,7.228,14.937c4.109,3.332,9.892,4.998,17.289,4.998c5.98,0,12.102-0.904,18.366-2.654
		c6.264-1.779,12.697-4.434,19.33-8.02v21.798c-6.717,2.541-13.435,4.461-20.151,5.731c-6.717,1.299-13.463,1.948-20.18,1.948
		c-16.07,0-28.569-4.065-37.469-12.226c-8.928-8.132-13.377-19.566-13.377-34.249c0-14.457,4.365-25.807,13.123-34.08
		s20.803-12.395,36.136-12.395c13.973,0,25.14,4.179,33.529,12.564C1199.323,108.813,1203.518,120.022,1203.518,134.056
		L1203.518,134.056z M1174.325,124.625c0-5.365-1.587-9.713-4.733-12.988c-3.146-3.303-7.256-4.941-12.329-4.941
		c-5.498,0-9.977,1.524-13.406,4.63c-3.458,3.078-5.583,7.511-6.434,13.299H1174.325z"/>
	<polygon fill="#FFFFFF" stroke="#000000" stroke-width="6.607" stroke-miterlimit="282" points="1658.811,65.755 1745.199,65.755 
		1745.199,89.868 1690.81,89.868 1690.81,112.879 1741.939,112.879 1741.939,136.992 1690.81,136.992 1690.81,165.312 
		1747.013,165.312 1747.013,189.396 1658.811,189.396 	"/>
	
		<rect x="1773.854" y="60.531" fill="#FFFFFF" stroke="#000000" stroke-width="6.607" stroke-miterlimit="282" width="29.759" height="128.865"/>
	<path fill="#FFFFFF" stroke="#000000" stroke-width="6.607" stroke-miterlimit="282" d="M1925.315,142.78v8.442h-69.581
		c0.737,6.945,3.26,12.169,7.567,15.643c4.337,3.501,10.374,5.223,18.14,5.223c6.264,0,12.669-0.932,19.244-2.767
		c6.547-1.863,13.293-4.659,20.236-8.414v22.87c-7.028,2.654-14.086,4.659-21.115,5.986c-7.028,1.355-14.086,2.033-21.115,2.033
		c-16.863,0-29.93-4.264-39.282-12.791c-9.324-8.527-14.001-20.499-14.001-35.887c0-15.134,4.592-27.021,13.746-35.689
		c9.183-8.668,21.795-13.016,37.865-13.016c14.625,0,26.358,4.404,35.116,13.157C1920.922,116.352,1925.315,128.098,1925.315,142.78
		L1925.315,142.78z M1894.733,132.926c0-5.646-1.644-10.164-4.96-13.637c-3.287-3.445-7.596-5.167-12.924-5.167
		c-5.754,0-10.43,1.609-14.029,4.856c-3.6,3.219-5.867,7.877-6.746,13.948H1894.733z"/>
	<polygon fill="#FFFFFF" stroke="#000000" stroke-width="6.607" stroke-miterlimit="282" points="1947.763,60.531 1977.522,60.531 
		1977.522,130.695 2011.788,96.644 2046.366,96.644 2000.876,139.223 2049.938,189.396 2013.857,189.396 1977.522,150.742 
		1977.522,189.396 1947.763,189.396 	"/>
	<path fill="#FFFFFF" stroke="#000000" stroke-width="6.607" stroke-miterlimit="282" d="M2093.67,70.329v26.315h30.666v21.205
		h-30.666v39.332c0,4.319,0.85,7.228,2.578,8.752c1.701,1.525,5.103,2.26,10.204,2.26h15.305v21.204h-25.509
		c-11.762,0-20.094-2.428-24.998-7.313c-4.902-4.885-7.34-13.187-7.34-24.903v-39.332h-14.795V96.644h14.795V70.329H2093.67z"/>
	<path fill="#FFFFFF" stroke="#000000" stroke-width="6.607" stroke-miterlimit="282" d="M2211.772,121.915
		c-2.579-1.214-5.187-2.118-7.766-2.683c-2.579-0.593-5.158-0.875-7.767-0.875c-7.652,0-13.547,2.428-17.656,7.313
		c-4.139,4.885-6.207,11.887-6.207,21.007v42.72h-29.76V96.644h29.76v15.247c3.826-6.071,8.219-10.503,13.179-13.299
		s10.912-4.179,17.827-4.179c0.992,0,2.069,0.056,3.26,0.113c1.162,0.084,2.834,0.282,5.045,0.564L2211.772,121.915z"/>
	<path fill="#FFFFFF" stroke="#000000" stroke-width="6.607" stroke-miterlimit="282" d="M2271.064,115.618
		c-6.604,0-11.648,2.372-15.105,7.087c-3.458,4.715-5.188,11.52-5.188,20.414c0,8.894,1.729,15.671,5.188,20.414
		c3.457,4.715,8.502,7.059,15.105,7.059c6.463,0,11.423-2.344,14.881-7.059c3.429-4.743,5.129-11.521,5.129-20.414
		c0-8.895-1.7-15.699-5.129-20.414C2282.487,117.99,2277.527,115.618,2271.064,115.618L2271.064,115.618z M2271.064,94.414
		c16.014,0,28.513,4.32,37.525,12.932c9.014,8.612,13.491,20.527,13.491,35.774c0,15.219-4.478,27.162-13.491,35.773
		c-9.013,8.612-21.512,12.904-37.525,12.904c-16.069,0-28.654-4.292-37.695-12.904c-9.069-8.611-13.604-20.555-13.604-35.773
		c0-15.247,4.534-27.162,13.604-35.774C2242.41,98.733,2254.995,94.414,2271.064,94.414L2271.064,94.414z"/>
	<path fill="#FFFFFF" stroke="#000000" stroke-width="6.607" stroke-miterlimit="282" d="M2437.406,132.926v56.471h-29.929v-9.177
		v-34.051c0-7.991-0.198-13.525-0.539-16.546c-0.368-3.05-0.991-5.28-1.87-6.72c-1.162-1.92-2.75-3.445-4.762-4.518
		c-1.984-1.073-4.252-1.609-6.803-1.609c-6.207,0-11.082,2.4-14.624,7.171c-3.543,4.771-5.329,11.379-5.329,19.821v45.628h-29.759
		V96.644h29.759v13.581c4.479-5.393,9.269-9.402,14.285-11.972c5.045-2.541,10.629-3.84,16.722-3.84
		c10.742,0,18.905,3.275,24.488,9.854C2434.601,110.846,2437.406,120.39,2437.406,132.926L2437.406,132.926z"/>
	<path fill="#FFFFFF" stroke="#000000" stroke-width="6.607" stroke-miterlimit="282" d="M2465.154,96.644h29.76v92.752h-29.76
		V96.644z M2465.154,60.531h29.76v24.197h-29.76V60.531z"/>
	<polygon fill="#FFFFFF" stroke="#000000" stroke-width="6.607" stroke-miterlimit="282" points="2523.682,60.531 2553.441,60.531 
		2553.441,130.695 2587.679,96.644 2622.285,96.644 2576.795,139.223 2625.855,189.396 2589.775,189.396 2553.441,150.742 
		2553.441,189.396 2523.682,189.396 	"/>
	
		<rect x="1270.774" y="1.576" fill="#FFFFFF" stroke="#9C9C9C" stroke-width="2.4282" stroke-miterlimit="282" width="236.319" height="249.203"/>
	<rect x="1388.934" y="0.334" fill="#E3001B" width="119.35" height="251.688"/>
	<polygon fill="#E3001B" points="1284.407,91.195 1284.407,41.727 1321.763,41.727 1321.763,50.084 1294.554,50.084 
		1294.554,61.068 1319.863,61.068 1319.863,69.397 1294.554,69.397 1294.554,82.865 1322.726,82.865 1322.726,91.195 	"/>
	<polygon fill="#E3001B" points="1331.257,91.195 1331.257,41.727 1346.505,41.727 1355.632,75.468 1364.673,41.727 
		1379.921,41.727 1379.921,91.195 1370.483,91.195 1370.483,52.258 1360.479,91.195 1350.7,91.195 1340.724,52.258 1340.724,91.195 
			"/>
	<polygon fill="#FFFFFF" points="1418.438,90.319 1400.072,40.936 1411.324,40.936 1424.334,77.472 1436.918,40.936 
		1447.915,40.936 1429.521,90.319 	"/>
	<path fill="#FFFFFF" d="M1449.729,80.098l9.892-1.44c0.425,1.835,1.275,3.247,2.551,4.207c1.304,0.932,3.09,1.412,5.413,1.412
		c2.552,0,4.45-0.452,5.754-1.327c0.851-0.649,1.275-1.496,1.275-2.541c0-0.706-0.227-1.299-0.68-1.779
		c-0.511-0.452-1.588-0.875-3.316-1.242c-7.936-1.694-12.98-3.219-15.106-4.631c-2.919-1.92-4.394-4.602-4.394-8.047
		c0-3.106,1.275-5.704,3.798-7.821c2.551-2.089,6.52-3.162,11.848-3.162c5.102,0,8.899,0.791,11.365,2.4
		c2.466,1.581,4.194,3.953,5.102,7.059l-9.268,1.666c-0.397-1.383-1.162-2.457-2.268-3.19c-1.105-0.762-2.692-1.129-4.733-1.129
		c-2.607,0-4.449,0.339-5.584,1.044c-0.736,0.508-1.133,1.129-1.133,1.92c0,0.677,0.34,1.242,0.992,1.722
		c0.878,0.621,3.968,1.525,9.211,2.654c5.243,1.157,8.899,2.541,10.969,4.207c2.068,1.694,3.089,4.038,3.089,7.059
		c0,3.275-1.417,6.099-4.279,8.442c-2.835,2.372-7.058,3.529-12.642,3.529c-5.072,0-9.098-0.988-12.045-2.965
		C1452.592,86.169,1450.664,83.486,1449.729,80.098L1449.729,80.098z"/>
	<polygon fill="#E3001B" stroke="#C01400" stroke-width="0.2259" stroke-linejoin="round" stroke-miterlimit="282" points="
		1389.076,113.444 1376.945,152.55 1337.946,152.069 1369.746,176.211 1357.275,214.893 1389.047,190.695 1389.076,113.444 	"/>
	<polygon fill="#FFFFFF" points="1388.962,113.303 1401.064,152.578 1440.064,152.126 1408.264,176.352 1420.734,215.175 
		1388.991,190.893 1388.962,113.303 	"/>
	<polygon fill="#FFFFFF" points="1458.77,190.385 1450.806,184.907 1443.097,190.78 1445.874,181.547 1437.91,176.069 
		1447.574,175.844 1450.353,166.61 1453.555,175.702 1463.22,175.448 1455.539,181.293 	"/>
</g>
</svg>
