<?xml version="1.0" encoding="utf-8"?>
<!-- Generator: Adobe Illustrator 15.0.0, SVG Export Plug-In . SVG Version: 6.00 Build 0)  -->
<!DOCTYPE svg PUBLIC "-//W3C//DTD SVG 1.1//EN" "http://www.w3.org/Graphics/SVG/1.1/DTD/svg11.dtd">
<svg version="1.1" id="Calque_1" xmlns="http://www.w3.org/2000/svg" xmlns:xlink="http://www.w3.org/1999/xlink" x="0px" y="0px"
	 width="2778.26px" height="252.68px" viewBox="0 0 2778.26 252.68" enable-background="new 0 0 2778.26 252.68"
	 xml:space="preserve">
<g>
	<path fill-rule="evenodd" clip-rule="evenodd" fill="#385AEF" d="M38.666,16.033h2700.168c21.424,0,38.683,12.282,38.683,27.529
		v165.232c0,15.247-17.259,27.529-38.683,27.529H38.666c-21.424,0-38.683-12.282-38.683-27.529V43.562
		C-0.017,28.315,17.242,16.033,38.666,16.033L38.666,16.033z"/>
	
		<rect x="49.633" y="60.531" fill="#FFFFFF" stroke="#000000" stroke-width="6.607" stroke-miterlimit="282" width="30.549" height="118.023"/>
	<path fill="#FFFFFF" stroke="#000000" stroke-width="6.607" stroke-miterlimit="282" d="M198.356,124.625v53.93h-28.566v-8.781
		v-32.499c0-7.623-0.17-12.903-0.539-15.812c-0.34-2.88-0.935-5.026-1.785-6.381c-1.105-1.864-2.607-3.304-4.506-4.32
		c-1.899-1.017-4.081-1.553-6.518-1.553c-5.923,0-10.57,2.287-13.971,6.861c-3.372,4.546-5.072,10.871-5.072,18.917v43.567h-28.396
		V90.009h28.396v12.96c4.279-5.167,8.841-8.979,13.659-11.407c4.817-2.457,10.117-3.699,15.955-3.699
		c10.259,0,18.052,3.134,23.352,9.431C195.692,103.562,198.356,112.682,198.356,124.625L198.356,124.625z"/>
	<path fill="#FFFFFF" stroke="#000000" stroke-width="6.607" stroke-miterlimit="282" d="M283.316,55.534v18.579h-15.7
		c-4.024,0-6.83,0.734-8.417,2.174c-1.587,1.468-2.38,3.981-2.38,7.567v6.155h24.287v20.245H256.82v68.301h-28.396v-68.301h-14.141
		V90.009h14.141v-6.155c0-9.656,2.692-16.772,8.077-21.402c5.413-4.603,13.773-6.917,25.08-6.917H283.316z"/>
	<path fill="#FFFFFF" stroke="#000000" stroke-width="6.607" stroke-miterlimit="282" d="M337.926,108.107
		c-6.291,0-11.109,2.259-14.396,6.776c-3.316,4.489-4.959,10.983-4.959,19.482c0,8.471,1.644,14.965,4.959,19.482
		c3.287,4.518,8.105,6.748,14.396,6.748c6.178,0,10.911-2.23,14.198-6.748c3.288-4.518,4.931-11.012,4.931-19.482
		c0-8.499-1.644-14.993-4.931-19.482C348.836,110.366,344.104,108.107,337.926,108.107L337.926,108.107z M337.926,87.863
		c15.275,0,27.234,4.123,35.82,12.339c8.587,8.216,12.895,19.624,12.895,34.165s-4.308,25.92-12.895,34.137
		c-8.586,8.244-20.545,12.338-35.82,12.338c-15.331,0-27.347-4.094-35.99-12.338c-8.644-8.217-12.979-19.596-12.979-34.137
		s4.336-25.948,12.979-34.165C310.579,91.985,322.595,87.863,337.926,87.863L337.926,87.863z"/>
	<path fill="#FFFFFF" stroke="#000000" stroke-width="6.607" stroke-miterlimit="282" d="M473.358,114.122
		c-2.465-1.158-4.959-2.005-7.396-2.569c-2.465-0.565-4.931-0.819-7.425-0.819c-7.312,0-12.922,2.315-16.862,6.974
		c-3.939,4.687-5.923,11.35-5.923,20.046v40.801h-28.396V90.009h28.396v14.541c3.656-5.788,7.85-10.023,12.583-12.678
		c4.733-2.654,10.4-4.009,17.032-4.009c0.935,0,1.984,0.057,3.089,0.141c1.105,0.057,2.721,0.226,4.846,0.508L473.358,114.122z"/>
	<path fill="#FFFFFF" stroke="#000000" stroke-width="6.607" stroke-miterlimit="282" d="M570.022,104.719
		c3.599-5.478,7.878-9.656,12.809-12.537c4.959-2.88,10.372-4.32,16.295-4.32c10.23,0,17.995,3.134,23.351,9.431
		c5.328,6.268,7.992,15.388,7.992,27.332v53.93h-28.566V132.39c0.057-0.706,0.114-1.412,0.142-2.146
		c0.028-0.734,0.028-1.779,0.028-3.163c0-6.268-0.935-10.813-2.777-13.637c-1.842-2.823-4.846-4.235-8.955-4.235
		c-5.413,0-9.579,2.231-12.498,6.664c-2.947,4.405-4.478,10.814-4.563,19.2v43.482h-28.566V132.39c0-9.797-0.85-16.122-2.55-18.946
		c-1.7-2.823-4.704-4.235-9.04-4.235c-5.441,0-9.664,2.231-12.611,6.692c-2.976,4.461-4.449,10.814-4.449,19.087v43.567h-28.566
		V90.009h28.566v12.96c3.485-4.998,7.481-8.781,12.016-11.294c4.534-2.542,9.522-3.812,14.963-3.812
		c6.121,0,11.563,1.497,16.267,4.433C564.014,95.26,567.585,99.383,570.022,104.719L570.022,104.719z"/>
	<path fill="#FFFFFF" stroke="#000000" stroke-width="6.607" stroke-miterlimit="282" d="M696.981,138.715
		c-5.923,0-10.372,0.987-13.376,2.992c-2.976,2.005-4.478,4.97-4.478,8.866c0,3.586,1.19,6.381,3.599,8.414
		c2.409,2.033,5.752,3.05,10.032,3.05c5.356,0,9.862-1.921,13.489-5.732c3.656-3.84,5.498-8.611,5.498-14.344v-3.246H696.981z
		 M740.368,128.041v50.514h-28.622v-13.13c-3.826,5.393-8.105,9.289-12.866,11.746c-4.761,2.456-10.542,3.67-17.372,3.67
		c-9.21,0-16.692-2.682-22.416-8.019c-5.753-5.364-8.615-12.282-8.615-20.837c0-10.391,3.599-17.986,10.741-22.843
		c7.169-4.856,18.449-7.285,33.78-7.285h16.749v-2.202c0-4.49-1.786-7.765-5.328-9.854c-3.542-2.062-9.069-3.106-16.579-3.106
		c-6.093,0-11.761,0.593-16.975,1.807c-5.243,1.214-10.117,3.049-14.623,5.449V92.38c6.093-1.468,12.214-2.598,18.335-3.36
		c6.15-0.762,12.271-1.158,18.42-1.158c16.012,0,27.602,3.163,34.715,9.459S740.368,113.867,740.368,128.041L740.368,128.041z"/>
	<path fill="#FFFFFF" stroke="#000000" stroke-width="6.607" stroke-miterlimit="282" d="M797.981,64.879v25.129h29.274v20.245
		h-29.274v37.552c0,4.095,0.822,6.89,2.465,8.33c1.644,1.439,4.903,2.174,9.749,2.174h14.623v20.245h-24.372
		c-11.222,0-19.157-2.344-23.833-7.003c-4.704-4.658-7.028-12.593-7.028-23.746v-37.552h-14.141V90.009h14.141V64.879H797.981z"/>
	<path fill="#FFFFFF" stroke="#000000" stroke-width="6.607" stroke-miterlimit="282" d="M844.712,90.009h28.424v88.546h-28.424
		V90.009z M844.712,55.534h28.424V78.63h-28.424V55.534z"/>
	<path fill="#FFFFFF" stroke="#000000" stroke-width="6.607" stroke-miterlimit="282" d="M942.312,108.418
		c-6.008,0-10.627,2.23-13.83,6.664c-3.202,4.405-4.817,10.842-4.817,19.285c0,8.414,1.615,14.852,4.817,19.284
		c3.203,4.434,7.822,6.636,13.83,6.636c6.093,0,10.74-2.202,13.943-6.636c3.202-4.433,4.789-10.87,4.789-19.284
		c0-8.442-1.587-14.88-4.789-19.285C953.052,110.648,948.404,108.418,942.312,108.418L942.312,108.418z M961.043,165.735
		c-3.911,5.224-8.218,9.035-12.922,11.464c-4.704,2.428-10.174,3.642-16.352,3.642c-10.939,0-19.951-4.319-26.979-12.987
		c-7.028-8.697-10.542-19.85-10.542-33.487c0-13.666,3.514-24.791,10.542-33.402c7.028-8.612,16.04-12.932,26.979-12.932
		c6.178,0,11.647,1.214,16.352,3.643s9.012,6.24,12.922,11.463V90.009h28.566v122.229h-28.566V165.735z"/>
	<path fill="#FFFFFF" stroke="#000000" stroke-width="6.607" stroke-miterlimit="282" d="M1016.106,144.079v-54.07h28.565v8.866
		c0,4.772,0,10.814-0.057,18.042c-0.057,7.256-0.085,12.085-0.085,14.513c0,7.115,0.17,12.254,0.539,15.389
		c0.396,3.134,1.02,5.421,1.927,6.832c1.162,1.836,2.664,3.275,4.563,4.264c1.87,1.017,4.024,1.497,6.461,1.497
		c5.923,0,10.57-2.259,13.971-6.776c3.373-4.546,5.073-10.843,5.073-18.918V90.009h28.396v88.546h-28.396v-12.819
		c-4.279,5.167-8.813,8.979-13.603,11.436c-4.79,2.456-10.061,3.67-15.842,3.67c-10.259,0-18.08-3.134-23.437-9.402
		C1018.798,165.171,1016.106,156.051,1016.106,144.079L1016.106,144.079z"/>
	<path fill="#FFFFFF" stroke="#000000" stroke-width="6.607" stroke-miterlimit="282" d="M1221.621,134.056v8.047h-66.398
		c0.68,6.636,3.089,11.633,7.226,14.937c4.109,3.332,9.89,4.998,17.287,4.998c5.979,0,12.101-0.904,18.364-2.654
		c6.263-1.779,12.724-4.434,19.328-8.02v21.826c-6.717,2.513-13.433,4.433-20.149,5.731c-6.716,1.271-13.433,1.92-20.149,1.92
		c-16.097,0-28.594-4.065-37.493-12.197c-8.927-8.16-13.376-19.566-13.376-34.277c0-14.457,4.364-25.807,13.121-34.08
		s20.801-12.423,36.161-12.423c13.943,0,25.137,4.207,33.525,12.593C1217.455,108.813,1221.621,120.022,1221.621,134.056
		L1221.621,134.056z M1192.432,124.625c0-5.365-1.559-9.713-4.733-12.988c-3.146-3.303-7.254-4.941-12.328-4.941
		c-5.498,0-9.975,1.524-13.404,4.63c-3.429,3.078-5.583,7.511-6.433,13.299H1192.432z"/>
	
		<rect x="1645.062" y="65.755" fill="#FFFFFF" stroke="#000000" stroke-width="6.607" stroke-miterlimit="282" width="31.995" height="123.642"/>
	<path fill="#FFFFFF" stroke="#000000" stroke-width="6.607" stroke-miterlimit="282" d="M1800.842,132.926v56.471h-29.927v-9.177
		v-34.051c0-7.991-0.17-13.525-0.538-16.546c-0.368-3.05-0.992-5.28-1.87-6.72c-1.162-1.92-2.749-3.445-4.733-4.518
		c-2.012-1.073-4.279-1.609-6.829-1.609c-6.206,0-11.081,2.4-14.623,7.171s-5.328,11.379-5.328,19.821v45.628h-29.756V96.644h29.756
		v13.581c4.506-5.393,9.268-9.402,14.312-11.972s10.599-3.84,16.691-3.84c10.77,0,18.931,3.275,24.485,9.854
		C1798.064,110.846,1800.842,120.39,1800.842,132.926L1800.842,132.926z"/>
	<path fill="#FFFFFF" stroke="#000000" stroke-width="6.607" stroke-miterlimit="282" d="M1889.883,60.531v19.482h-16.465
		c-4.223,0-7.17,0.734-8.814,2.259c-1.672,1.524-2.493,4.15-2.493,7.906v6.466h25.42v21.205h-25.42v71.548h-29.756v-71.548h-14.793
		V96.644h14.793v-6.466c0-10.08,2.806-17.563,8.474-22.391c5.639-4.828,14.396-7.256,26.27-7.256H1889.883z"/>
	<path fill="#FFFFFF" stroke="#000000" stroke-width="6.607" stroke-miterlimit="282" d="M1947.07,115.618
		c-6.603,0-11.647,2.343-15.104,7.087c-3.457,4.715-5.187,11.52-5.187,20.414c0,8.894,1.729,15.698,5.187,20.414
		c3.457,4.715,8.502,7.087,15.104,7.087c6.461,0,11.421-2.372,14.878-7.087c3.429-4.716,5.158-11.521,5.158-20.414
		c0-8.895-1.729-15.699-5.158-20.414C1958.491,117.961,1953.531,115.618,1947.07,115.618L1947.07,115.618z M1947.07,94.414
		c16.012,0,28.509,4.292,37.521,12.932c9.012,8.612,13.518,20.527,13.518,35.774c0,15.219-4.506,27.162-13.518,35.773
		c-9.013,8.612-21.51,12.933-37.521,12.933c-16.068,0-28.65-4.32-37.719-12.933c-9.04-8.611-13.574-20.555-13.574-35.773
		c0-15.247,4.534-27.162,13.574-35.774C1918.42,98.705,1931.002,94.414,1947.07,94.414L1947.07,94.414z"/>
	<path fill="#FFFFFF" stroke="#000000" stroke-width="6.607" stroke-miterlimit="282" d="M2088.964,121.915
		c-2.607-1.214-5.187-2.118-7.765-2.71c-2.579-0.565-5.187-0.847-7.793-0.847c-7.652,0-13.519,2.428-17.656,7.313
		c-4.137,4.885-6.206,11.887-6.206,21.007v42.72h-29.756V96.644h29.756v15.247c3.826-6.071,8.219-10.503,13.178-13.299
		c4.96-2.795,10.911-4.179,17.854-4.179c0.992,0,2.069,0.028,3.231,0.113c1.161,0.084,2.861,0.282,5.072,0.537L2088.964,121.915z"/>
	<path fill="#FFFFFF" stroke="#000000" stroke-width="6.607" stroke-miterlimit="282" d="M2190.219,112.061
		c3.77-5.76,8.247-10.137,13.404-13.129c5.187-3.021,10.883-4.518,17.089-4.518c10.712,0,18.845,3.275,24.456,9.854
		c5.583,6.579,8.389,16.122,8.389,28.658v56.471h-29.926v-48.367c0.057-0.705,0.085-1.439,0.113-2.23
		c0.028-0.762,0.057-1.863,0.057-3.304c0-6.578-0.964-11.322-2.919-14.287c-1.927-2.965-5.073-4.433-9.38-4.433
		c-5.668,0-10.032,2.315-13.093,6.946c-3.089,4.658-4.676,11.351-4.79,20.132v45.543h-29.926v-48.367
		c0-10.249-0.878-16.856-2.664-19.821c-1.785-2.965-4.931-4.433-9.465-4.433c-5.725,0-10.117,2.343-13.234,7.002
		c-3.089,4.659-4.647,11.323-4.647,19.991v45.628h-29.926V96.644h29.926v13.581c3.655-5.252,7.851-9.176,12.583-11.831
		c4.761-2.654,9.975-3.981,15.671-3.981c6.433,0,12.129,1.553,17.061,4.63C2183.928,102.15,2187.668,106.47,2190.219,112.061
		L2190.219,112.061z"/>
	<path fill="#FFFFFF" stroke="#000000" stroke-width="6.607" stroke-miterlimit="282" d="M2323.214,147.665
		c-6.206,0-10.882,1.045-13.999,3.162c-3.146,2.09-4.705,5.167-4.705,9.262c0,3.755,1.247,6.691,3.77,8.809
		c2.522,2.146,6.036,3.19,10.542,3.19c5.583,0,10.287-1.976,14.112-5.985c3.826-4.01,5.754-9.007,5.754-15.05v-3.388H2323.214z
		 M2368.698,136.483v52.913h-30.011v-13.723c-3.996,5.619-8.502,9.713-13.49,12.282c-4.987,2.57-11.052,3.869-18.193,3.869
		c-9.635,0-17.457-2.824-23.493-8.414c-6.008-5.619-9.012-12.876-9.012-21.826c0-10.871,3.77-18.861,11.279-23.943
		s19.299-7.624,35.367-7.624h17.542v-2.314c0-4.688-1.871-8.132-5.583-10.306c-3.713-2.174-9.494-3.275-17.372-3.275
		c-6.376,0-12.299,0.649-17.797,1.92c-5.47,1.271-10.57,3.163-15.274,5.704V99.129c6.348-1.553,12.752-2.711,19.185-3.53
		c6.434-0.791,12.866-1.186,19.3-1.186c16.776,0,28.905,3.303,36.358,9.882C2364.957,110.903,2368.698,121.632,2368.698,136.483
		L2368.698,136.483z"/>
	<path fill="#FFFFFF" stroke="#000000" stroke-width="6.607" stroke-miterlimit="282" d="M2429.031,70.301v26.343h30.691v21.205
		h-30.691v39.332c0,4.319,0.851,7.228,2.579,8.752c1.729,1.525,5.13,2.287,10.23,2.287h15.304v21.177h-25.534
		c-11.761,0-20.063-2.428-24.967-7.313c-4.902-4.885-7.368-13.187-7.368-24.903v-39.332h-14.793V96.644h14.793V70.301H2429.031z"/>
	<path fill="#FFFFFF" stroke="#000000" stroke-width="6.607" stroke-miterlimit="282" d="M2478.002,96.644h29.756v92.752h-29.756
		V96.644z M2478.002,60.531h29.756v24.197h-29.756V60.531z"/>
	<polygon fill="#FFFFFF" stroke="#000000" stroke-width="6.607" stroke-miterlimit="282" points="2536.521,60.531 2566.277,60.531 
		2566.277,130.695 2600.539,96.644 2635.113,96.644 2589.629,139.223 2638.684,189.396 2602.607,189.396 2566.277,150.742 
		2566.277,189.396 2536.521,189.396 	"/>
	
		<rect x="1270.619" y="1.576" fill="#FFFFFF" stroke="#9C9C9C" stroke-width="2.4282" stroke-miterlimit="282" width="236.291" height="249.203"/>
	<rect x="1388.736" y="0.334" fill="#E3001B" width="119.364" height="251.688"/>
	<polygon fill="#E3001B" points="1284.222,91.195 1284.222,41.727 1321.572,41.727 1321.572,50.084 1294.395,50.084 
		1294.395,61.068 1319.702,61.068 1319.702,69.397 1294.395,69.397 1294.395,82.865 1322.536,82.865 1322.536,91.195 	"/>
	<polygon fill="#E3001B" points="1331.094,91.195 1331.094,41.727 1346.312,41.727 1355.466,75.468 1364.506,41.727 
		1379.752,41.727 1379.752,91.195 1370.315,91.195 1370.315,52.258 1360.312,91.195 1350.506,91.195 1340.56,52.258 1340.56,91.195 
			"/>
	<polygon fill="#FFFFFF" points="1418.265,90.319 1399.901,40.936 1411.152,40.936 1424.159,77.472 1436.742,40.936 
		1447.737,40.936 1429.346,90.319 	"/>
	<path fill="#FFFFFF" d="M1449.551,80.098l9.891-1.44c0.425,1.835,1.275,3.247,2.551,4.207c1.275,0.932,3.089,1.412,5.412,1.412
		c2.522,0,4.449-0.452,5.725-1.327c0.879-0.649,1.304-1.496,1.304-2.541c0-0.706-0.227-1.299-0.708-1.779
		c-0.482-0.452-1.587-0.875-3.287-1.242c-7.936-1.694-12.979-3.219-15.105-4.631c-2.947-1.92-4.421-4.602-4.421-8.047
		c0-3.106,1.275-5.704,3.826-7.821c2.551-2.089,6.489-3.162,11.846-3.162c5.101,0,8.87,0.791,11.364,2.4
		c2.465,1.581,4.165,3.953,5.101,7.059l-9.267,1.666c-0.396-1.383-1.162-2.457-2.268-3.19c-1.105-0.762-2.692-1.129-4.761-1.129
		c-2.579,0-4.449,0.339-5.555,1.044c-0.765,0.508-1.134,1.129-1.134,1.92c0,0.677,0.341,1.242,0.992,1.722
		c0.879,0.621,3.939,1.525,9.182,2.654c5.243,1.157,8.927,2.541,10.996,4.207c2.04,1.694,3.089,4.038,3.089,7.059
		c0,3.275-1.445,6.099-4.279,8.442c-2.862,2.372-7.057,3.529-12.64,3.529c-5.072,0-9.097-0.988-12.044-2.965
		C1452.413,86.169,1450.458,83.486,1449.551,80.098L1449.551,80.098z"/>
	<polygon fill="#E3001B" stroke="#C01400" stroke-width="0.2259" stroke-linejoin="round" stroke-miterlimit="282" points="
		1388.877,113.444 1376.776,152.55 1337.782,152.069 1369.579,176.211 1357.109,214.893 1388.877,190.695 1388.877,113.444 	"/>
	<polygon fill="#FFFFFF" points="1388.792,113.303 1400.893,152.578 1439.888,152.126 1408.091,176.352 1420.561,215.175 
		1388.792,190.893 1388.792,113.303 	"/>
	<polygon fill="#FFFFFF" points="1458.563,190.385 1450.6,184.907 1442.92,190.78 1445.697,181.547 1437.733,176.069 
		1447.397,175.844 1450.146,166.61 1453.377,175.702 1463.041,175.448 1455.36,181.293 	"/>
</g>
</svg>
